<?xml version="1.0" encoding="UTF-8" standalone="no"?>
<!-- Created with Inkscape (http://www.inkscape.org/) -->

<svg
   width="50.000076mm"
   height="10.000004mm"
   viewBox="0 0 50.000076 10.000004"
   version="1.1"
   id="svg1"
   xmlns="http://www.w3.org/2000/svg"
   xmlns:svg="http://www.w3.org/2000/svg">
  <defs
     id="defs1">
    <clipPath
       clipPathUnits="userSpaceOnUse"
       id="clipPath111">
      <path
         d="M 0,2000.13 H 4589.945 V 0 H 0 Z"
         transform="translate(-839.47452,-922.21255)"
         id="path111" />
    </clipPath>
    <clipPath
       clipPathUnits="userSpaceOnUse"
       id="clipPath113">
      <path
         d="M 0,2000.13 H 4589.945 V 0 H 0 Z"
         transform="translate(-581.25026,-1447.5197)"
         id="path113" />
    </clipPath>
    <clipPath
       clipPathUnits="userSpaceOnUse"
       id="clipPath115">
      <path
         d="M 0,2000.13 H 4589.945 V 0 H 0 Z"
         transform="translate(-1774.441,-1447.285)"
         id="path115" />
    </clipPath>
    <clipPath
       clipPathUnits="userSpaceOnUse"
       id="clipPath117">
      <path
         d="M 0,2000.13 H 4589.945 V 0 H 0 Z"
         transform="translate(-502.67351,-758.40002)"
         id="path117" />
    </clipPath>
    <clipPath
       clipPathUnits="userSpaceOnUse"
       id="clipPath119">
      <path
         d="M 0,2000.13 H 4589.945 V 0 H 0 Z"
         transform="translate(-1712.971,-347.32463)"
         id="path119" />
    </clipPath>
    <clipPath
       clipPathUnits="userSpaceOnUse"
       id="clipPath121">
      <path
         d="M 0,2000.13 H 4589.945 V 0 H 0 Z"
         transform="translate(-1177.9713,-257.66063)"
         id="path121" />
    </clipPath>
    <clipPath
       clipPathUnits="userSpaceOnUse"
       id="clipPath123">
      <path
         d="M 0,2000.13 H 4589.945 V 0 H 0 Z"
         transform="translate(-715.45902,-901.6558)"
         id="path123" />
    </clipPath>
    <clipPath
       clipPathUnits="userSpaceOnUse"
       id="clipPath125">
      <path
         d="M 0,2000.13 H 4589.945 V 0 H 0 Z"
         transform="translate(-1640.701,-901.64515)"
         id="path125" />
    </clipPath>
    <clipPath
       clipPathUnits="userSpaceOnUse"
       id="clipPath127">
      <path
         d="M 0,2000.13 H 4589.945 V 0 H 0 Z"
         transform="translate(-715.86102,-1020.634)"
         id="path127" />
    </clipPath>
    <clipPath
       clipPathUnits="userSpaceOnUse"
       id="clipPath129">
      <path
         d="M 0,2000.13 H 4589.945 V 0 H 0 Z"
         transform="translate(-1640.5045,-1022.2746)"
         id="path129" />
    </clipPath>
    <clipPath
       clipPathUnits="userSpaceOnUse"
       id="clipPath131">
      <path
         d="M 0,2000.13 H 4589.945 V 0 H 0 Z"
         transform="translate(-977.53752,-1012.3795)"
         id="path131" />
    </clipPath>
    <clipPath
       clipPathUnits="userSpaceOnUse"
       id="clipPath133">
      <path
         d="M 0,2000.13 H 4589.945 V 0 H 0 Z"
         transform="translate(-1410.292,-1090.7022)"
         id="path133" />
    </clipPath>
  </defs>
  <g
     id="layer1"
     transform="translate(-59.999998,-90.000002)">
    <path
       id="path86"
       d="m 76.56513,96.879542 -0.969394,-3.817997 c -0.09366,-0.34012 -0.306229,-0.54429 -0.671806,-0.54429 -0.357157,0 -0.569724,0.20417 -0.663383,0.54429 l -0.960763,3.817997 c -0.102074,0.39106 0.110489,0.62067 0.433553,0.62067 0.289173,0 0.39967,-0.15301 0.45923,-0.43379 l 0.170056,-0.807757 h 1.07989 l 0.170057,0.807757 c 0.05956,0.28078 0.1871,0.43379 0.501743,0.43379 0.32328,0 0.55268,-0.22961 0.450817,-0.62067 z m -2.03245,-1.411567 0.374207,-1.7517 0.36557,1.7517 z m 3.580044,2.032237 h 0.629289 c 0.807757,0 1.139451,-0.34012 1.139451,-1.122417 v -3.35875 c 0,-0.32331 -0.178687,-0.5104 -0.501747,-0.5104 -0.33169,0 -0.510163,0.18709 -0.510163,0.5104 v 3.36718 c 0,0.18709 -0.08503,0.289167 -0.263714,0.289167 h -0.365573 c -0.17869,0 -0.255083,-0.102077 -0.255083,-0.289167 v -3.36718 c 0,-0.32331 -0.178687,-0.5104 -0.510164,-0.5104 -0.323276,0 -0.51038,0.18709 -0.51038,0.5104 v 3.35875 c 0,0.782297 0.331694,1.122417 1.148084,1.122417 z m 3.537213,0 h 0.535833 c 0.799356,0 1.122416,-0.34012 1.122416,-1.062837 v -0.35716 c 0,-0.39967 -0.144593,-0.52724 -0.450603,-0.52724 h -0.09367 c -0.323043,0 -0.44218,0.12757 -0.44218,0.47609 v 0.35717 c 0,0.18708 -0.08502,0.289157 -0.24666,0.289157 h -0.323066 c -0.144593,0 -0.23804,-0.102077 -0.23804,-0.289157 v -2.77204 c 0,-0.19551 0.09345,-0.28917 0.23804,-0.28917 h 0.323066 c 0.16164,0 0.24666,0.0937 0.24666,0.28917 v 0.36557 c 0,0.34873 0.119137,0.4763 0.44218,0.4763 h 0.09367 c 0.30601,0 0.450603,-0.12757 0.450603,-0.52723 v -0.36579 c 0,-0.73114 -0.32306,-1.06283 -1.122416,-1.06283 h -0.535833 c -0.79935,0 -1.122407,0.33169 -1.122407,1.09696 v 2.8061 c 0,0.756817 0.323057,1.096937 1.122407,1.096937 z m 6.037423,-0.68885 -0.52722,-1.241327 c 0.331703,-0.17026 0.484693,-0.51036 0.484693,-0.98643 v -0.94394 c 0,-0.70568 -0.331676,-1.10536 -1.096926,-1.10536 h -1.369071 c -0.23804,0 -0.331483,0.0934 -0.331483,0.39968 v 4.047407 c 0,0.3233 0.178477,0.5104 0.510177,0.5104 0.323066,0 0.476057,-0.1871 0.476057,-0.5104 v -1.292447 h 0.382633 l 0.54428,1.428657 c 0.07659,0.25506 0.263676,0.37419 0.48469,0.37419 0.42512,0 0.57834,-0.33169 0.44217,-0.68043 z m -1.853773,-3.469297 h 0.578353 c 0.152997,0 0.246457,0.0935 0.246457,0.28921 v 1.0374 c 0,0.18706 -0.09346,0.28913 -0.246457,0.28913 h -0.578353 z m 3.503361,4.158147 h 0.73134 c 0.799349,0 1.122413,-0.34011 1.122413,-1.096937 v -2.8061 c 0,-0.76527 -0.323064,-1.09696 -1.122413,-1.09696 h -0.73134 c -0.799374,0 -1.122425,0.33169 -1.122425,1.09696 v 2.8061 c 0,0.756827 0.323051,1.096937 1.122425,1.096937 z m 0.10205,-0.82482 c -0.144559,0 -0.238032,-0.102077 -0.238032,-0.289167 v -2.77203 c 0,-0.19551 0.09347,-0.28917 0.238032,-0.28917 h 0.518807 c 0.152997,0 0.24644,0.0937 0.24644,0.28917 v 2.77203 c 0,0.18709 -0.09344,0.289167 -0.24644,0.289167 z m 4.762021,-1.734667 c 0.271948,-0.11068 0.43356,-0.36577 0.43356,-0.85046 v -0.45899 c 0,-0.69729 -0.289174,-1.09697 -1.05443,-1.09697 h -1.369064 c -0.23805,0 -0.331484,0.0934 -0.331484,0.39968 v 4.124037 c 0,0.29759 0.09343,0.39126 0.331484,0.39126 h 1.471144 c 0.765239,0 1.054404,-0.39968 1.054404,-1.088507 v -0.5188 c 0,-0.51859 -0.204125,-0.79913 -0.535614,-0.90125 z m -0.535873,-1.34355 v 0.70587 c 0,0.19553 -0.07637,0.28056 -0.246643,0.28056 h -0.561079 v -1.267 h 0.56975 c 0.161607,0 0.237972,0.0764 0.237972,0.28057 z m 0.102114,2.78905 c 0,0.20413 -0.07662,0.289167 -0.238045,0.289167 h -0.671791 v -1.352007 h 0.663172 c 0.170045,0 0.246664,0.0764 0.246664,0.28054 z m 2.661463,1.113987 h 0.73136 c 0.799347,0 1.122407,-0.34011 1.122407,-1.096937 v -2.8061 c 0,-0.76527 -0.32306,-1.09696 -1.122407,-1.09696 h -0.73136 c -0.79937,0 -1.122401,0.33169 -1.122401,1.09696 v 2.8061 c 0,0.756827 0.323031,1.096937 1.122401,1.096937 z m 0.10207,-0.82482 c -0.14458,0 -0.23803,-0.102077 -0.23803,-0.289167 v -2.77203 c 0,-0.19551 0.0935,-0.28917 0.23803,-0.28917 h 0.5188 c 0.15301,0 0.24646,0.0937 0.24646,0.28917 v 2.77203 c 0,0.18709 -0.0935,0.289167 -0.24646,0.289167 z m 4.838297,-4.090157 h -2.35531 c -0.28074,0 -0.44216,0.16165 -0.44216,0.43381 0,0.26346 0.16142,0.42511 0.44216,0.42511 h 0.67181 v 3.537237 c 0,0.3233 0.1869,0.5104 0.51018,0.5104 0.33149,0 0.50173,-0.1871 0.50173,-0.5104 v -3.537237 h 0.67159 c 0.28076,0 0.45084,-0.16165 0.45084,-0.42511 0,-0.27216 -0.17008,-0.43381 -0.45084,-0.43381 z m 1.37771,4.906557 c 0.33149,0 0.50154,-0.1871 0.50154,-0.5104 v -3.962347 c 0,-0.32331 -0.17005,-0.5104 -0.50154,-0.5104 -0.33169,0 -0.51038,0.18709 -0.51038,0.5104 v 3.962347 c 0,0.3233 0.17869,0.5104 0.51038,0.5104 z m 2.37231,0.008 h 0.53584 c 0.79933,0 1.12241,-0.34011 1.12241,-1.062847 v -0.35714 c 0,-0.39968 -0.1446,-0.52724 -0.45059,-0.52724 h -0.0937 c -0.32306,0 -0.44217,0.12756 -0.44217,0.47609 v 0.35716 c 0,0.1871 -0.085,0.289177 -0.24669,0.289177 h -0.32304 c -0.14459,0 -0.23804,-0.102077 -0.23804,-0.289177 v -2.77203 c 0,-0.19552 0.0935,-0.28918 0.23804,-0.28918 h 0.32304 c 0.16169,0 0.24669,0.0937 0.24669,0.28918 v 0.36556 c 0,0.34874 0.11911,0.4763 0.44217,0.4763 h 0.0937 c 0.30599,0 0.45059,-0.12756 0.45059,-0.52723 v -0.36577 c 0,-0.73119 -0.32308,-1.06286 -1.12241,-1.06286 h -0.53584 c -0.79937,0 -1.12242,0.33167 -1.12242,1.09696 v 2.8061 c 0,0.756827 0.32305,1.096947 1.12242,1.096947 z m 3.19725,0 h 0.56132 c 0.83324,0 1.1224,-0.37421 1.1224,-1.046007 v -0.68864 c 0,-0.5613 -0.20415,-0.85891 -0.65472,-1.02054 l -1.01195,-0.36519 c -0.1105,-0.0425 -0.15299,-0.10207 -0.15299,-0.26351 v -0.52722 c 0,-0.17869 0.0593,-0.28073 0.2296,-0.28073 h 0.34852 c 0.17005,0 0.25509,0.10204 0.25509,0.28073 v 0.15302 c 0,0.27212 0.11051,0.39105 0.45925,0.39105 h 0.0596 c 0.27213,0 0.45061,-0.0764 0.45061,-0.45902 v -0.17008 c 0,-0.59539 -0.2976,-1.00349 -1.12243,-1.00349 h -0.5272 c -0.83343,0 -1.12239,0.37423 -1.12239,1.046 v 0.66321 c 0,0.56129 0.17005,0.80773 0.64612,0.98643 l 1.0119,0.35713 c 0.10204,0.0426 0.16165,0.11892 0.16165,0.27215 v 0.58656 c 0,0.17868 -0.0766,0.280767 -0.25507,0.280767 h -0.3656 c -0.17025,0 -0.24666,-0.102087 -0.24666,-0.280767 v -0.19552 c 0,-0.27213 -0.15299,-0.38261 -0.44218,-0.38261 h -0.0595 c -0.34018,0 -0.46769,0.14459 -0.46769,0.48469 v 0.17005 c 0,0.595197 0.28918,1.011917 1.12241,1.011917 z m 0,0"
       style="fill:#1f6692;fill-opacity:1;fill-rule:nonzero;stroke:none;stroke-width:0.0184154"
       aria-label="AUC ROBOTICS" />
    <g
       id="g1"
       transform="matrix(0.0182831,0,0,0.0182831,78.422403,93.582474)">
      <path
         id="path110"
         d="m 0,0 c -0.961,-1.054 -0.321,-2.049 0.059,-3.084 2.698,-7.353 5.429,-14.695 8.049,-22.076 14.436,-40.672 28.776,-81.378 43.286,-122.023 7.631,-21.377 15.552,-42.65 23.323,-63.977 3.905,-10.721 10.465,-19.331 20.097,-25.541 2.15,-1.386 4.246,-2.856 6.387,-4.257 23.822,-15.585 47.645,-31.17 71.475,-46.742 37.754,-24.67 75.533,-49.3 113.253,-74.022 6.752,-4.426 13.848,-7.981 21.68,-9.954 8.569,-2.159 17.271,-3.261 26.128,-2.982 2.396,0.076 4.797,0.129 7.193,0.059 5.444,-0.16 10.855,-0.005 16.278,0.648 12.101,1.458 23.271,5.192 33.534,11.96 28.705,18.929 57.564,37.624 86.341,56.445 34.933,22.848 69.822,45.762 104.778,68.575 9.742,6.357 16.528,14.939 20.486,25.824 8.687,23.885 17.484,47.731 26.036,71.664 13.825,38.684 27.478,77.429 41.229,116.139 2.407,6.777 4.942,13.509 7.403,20.267 0.367,1.01 0.985,2.068 -0.328,3.211 -0.744,-0.407 -1.609,-0.777 -2.356,-1.312 -1.429,-1.025 -2.783,-2.153 -4.18,-3.222 -44.838,-34.316 -89.664,-68.65 -134.531,-102.928 -9.276,-7.087 -18.542,-14.208 -28.111,-20.886 -13.822,-9.645 -28.622,-17.508 -44.639,-22.975 -9.161,-3.127 -18.463,-4.826 -28.211,-4.729 -19.833,0.199 -39.67,-0.045 -59.506,-0.039 -44.951,0.015 -89.902,0.072 -134.853,0.111 -0.64,0.001 -1.28,0.009 -1.919,0.001 -5.153,-0.065 -10.194,0.686 -15.173,1.978 -9.475,2.459 -18.548,5.974 -27.346,10.242 -14.309,6.944 -27.499,15.652 -40.099,25.301 -30.478,23.34 -60.964,46.671 -91.447,70.004 C 44.12,-32.862 23.925,-17.404 3.721,-1.957 2.602,-1.102 1.632,0.083 0,0 m 163.08,499.671 c -4.014,-0.742 -6.68,-2.876 -9.495,-4.646 -43.193,-27.153 -86.37,-54.333 -129.544,-81.516 -12.316,-7.755 -24.575,-15.602 -36.938,-23.281 -4.096,-2.545 -5.917,-5.98 -5.815,-10.756 0.126,-5.916 -0.076,-11.838 -0.034,-17.756 0.163,-23.353 0.407,-46.706 0.54,-70.059 0.107,-18.877 0.084,-37.754 0.143,-56.631 0.049,-15.357 0.183,-30.714 0.19,-46.072 0.013,-27.035 -0.036,-54.07 -0.077,-81.105 -0.007,-4.479 -0.066,-8.958 -0.18,-13.435 -0.053,-2.101 0.69,-3.694 2.387,-4.93 2.068,-1.508 4.079,-3.092 6.111,-4.648 70.738,-54.176 141.49,-108.333 212.203,-162.542 15.41,-11.814 32.683,-17.653 52.138,-17.589 42.236,0.14 84.471,0.043 126.707,0.044 14.238,0 28.477,0.027 42.715,-0.011 6.596,-0.018 13.069,0.809 19.466,2.383 11.525,2.837 21.775,8.182 31.158,15.393 31.074,23.883 62.189,47.712 93.306,71.538 41.023,31.412 82.04,62.832 123.142,94.14 3.175,2.419 4.642,5.087 4.126,8.948 -0.063,0.474 -0.076,0.957 -0.084,1.436 -0.2,11.195 -0.596,22.389 -0.556,33.583 0.135,38.07 0.462,76.14 0.642,114.211 0.109,23.037 0.061,46.074 0.124,69.111 0.036,13.278 0.179,26.555 0.222,39.832 0.026,8.479 -0.102,16.958 -0.044,25.436 0.026,3.893 -1.593,6.753 -4.774,8.838 -1.07,0.701 -2.148,1.391 -3.23,2.073 -26.658,16.796 -53.314,33.594 -79.975,50.383 -28.557,17.982 -57.114,35.962 -85.688,53.917 -1.887,1.186 -3.858,2.273 -5.892,3.179 -1.916,0.853 -3.146,0.073 -3.293,-2.02 -0.201,-2.869 -0.311,-5.751 -0.304,-8.627 0.046,-19.036 0.161,-38.071 0.201,-57.107 0.037,-17.758 0.043,-35.516 -0.016,-53.274 -0.015,-4.475 -0.193,-8.959 -0.54,-13.42 -0.703,-9.045 -4.531,-16.566 -11.506,-22.411 -1.467,-1.229 -3.05,-2.332 -4.65,-3.387 -15.486,-10.217 -30.988,-20.41 -46.484,-30.612 -29.122,-19.174 -58.226,-38.376 -87.388,-57.489 -3.731,-2.446 -7.656,-4.663 -11.686,-6.575 -7.64,-3.624 -15.465,-3.582 -23.248,-0.287 -1.616,0.685 -3.219,1.437 -4.731,2.324 -3.169,1.861 -6.327,3.754 -9.397,5.773 -32.607,21.443 -65.195,42.914 -97.789,64.377 -11.488,7.564 -23.011,15.076 -34.442,22.726 -2.64,1.767 -5.2,3.777 -7.392,6.063 -5.795,6.042 -8.494,13.487 -8.667,21.773 -0.198,9.434 -0.164,18.874 -0.169,28.311 -0.017,32.475 -0.005,64.95 -0.012,97.426 0,1.438 0.049,2.898 -0.182,4.305 -0.142,0.859 -0.778,1.637 -1.299,2.663 m 531.619,-34.087 c 0.399,1.503 0.794,2.391 0.849,3.3 0.252,4.151 0.422,8.307 0.591,12.462 0.052,1.277 0.007,2.559 0.009,3.839 0.053,36.156 0.102,72.311 0.162,108.467 0.016,9.279 0.093,18.558 0.089,27.836 -10e-4,4.678 0.593,9.251 2.081,13.69 3.891,11.603 13.467,19.199 25.679,19.84 8.232,0.433 15.432,-2.391 21.05,-8.591 5.902,-6.512 9.134,-14.203 9.584,-23.002 0.138,-2.714 0.12,-5.437 0.12,-8.157 0.006,-61.755 0,-123.51 0.012,-185.265 0.001,-6.714 -0.647,-6.034 5.463,-9.876 13.81,-8.684 27.55,-17.48 41.404,-26.094 5.912,-3.676 9.515,-8.691 11.056,-15.512 5.246,-23.232 10.674,-46.424 16.031,-69.631 1.079,-4.673 2.038,-9.377 3.255,-14.013 2.067,-7.881 -1.088,-16.822 -10.386,-21.362 -20.836,-10.173 -41.658,-20.36 -62.977,-29.496 -1.157,-0.496 -2.251,-1.141 -3.404,-1.732 -0.067,-1.445 -0.17,-2.715 -0.177,-3.986 -0.098,-20.317 -0.188,-40.634 -0.271,-60.951 -0.108,-26.556 -0.198,-53.112 -0.317,-79.667 -0.054,-11.835 -0.159,-23.668 -0.246,-35.503 -0.143,-19.385 -3.769,-38.094 -10.429,-56.305 -9.28,-25.372 -18.269,-50.85 -27.413,-76.272 -19.802,-55.058 -39.763,-110.058 -59.371,-165.185 -8.195,-23.039 -21.993,-41.716 -41.38,-56.393 -4.332,-3.28 -8.781,-6.425 -13.332,-9.393 -53.722,-35.038 -107.484,-70.013 -161.207,-105.049 -11.656,-7.601 -23.207,-15.363 -34.784,-23.084 -1.994,-1.329 -3.866,-2.839 -5.812,-4.242 -17.716,-12.769 -37.437,-19.11 -59.328,-18.495 -1.598,0.044 -3.2,0.086 -4.797,0.03 -22.955,-0.802 -43.478,5.974 -61.792,19.729 -2.81,2.111 -5.72,4.1 -8.663,6.025 -52.867,34.591 -105.742,69.169 -158.626,103.734 -10.978,7.176 -21.998,14.288 -32.993,21.439 -10.356,6.734 -20.123,14.198 -28.698,23.144 -10.772,11.239 -19,24.086 -24.307,38.732 -10.349,28.556 -20.631,57.136 -30.916,85.715 -18.567,51.594 -37.136,103.187 -55.654,154.799 -3.184,8.874 -6.35,17.769 -8.387,27.001 -2.385,10.811 -3.637,21.768 -3.713,32.835 -0.129,18.877 -0.106,37.755 -0.215,56.632 -0.233,40.471 -0.507,80.942 -0.776,121.412 -0.007,1.103 -0.144,2.205 -0.234,3.5 -1.467,0.689 -2.884,1.409 -4.342,2.032 -21.182,9.053 -41.912,19.067 -62.491,29.399 -8.146,4.089 -11.738,11.246 -9.839,20.241 2.18,10.321 4.662,20.578 7.031,30.858 4.056,17.602 8.252,35.173 12.131,52.813 1.618,7.358 5.451,12.658 11.855,16.596 14.031,8.629 27.883,17.551 41.808,26.354 0.405,0.256 0.789,0.561 1.222,0.757 2.549,1.151 3.376,3.181 3.15,5.848 -0.108,1.271 -0.017,2.558 -0.017,3.838 0,60.795 -0.011,121.59 0.025,182.386 0.003,4.311 0.177,8.641 0.598,12.93 0.813,8.292 4.47,15.363 10.386,21.091 13.078,12.661 34.519,8.417 43.139,-6.996 2.212,-3.953 3.568,-8.225 4.024,-12.723 0.354,-3.496 0.604,-7.02 0.612,-10.532 0.083,-38.395 0.092,-76.792 0.163,-115.188 0.019,-10.237 0.164,-20.474 0.296,-30.711 0.024,-1.887 -0.116,-3.866 1.448,-5.649 0.834,0.166 1.814,0.179 2.619,0.561 1.438,0.683 2.791,1.555 4.144,2.406 55.099,34.663 110.195,69.332 165.287,104.006 1.353,0.851 2.67,1.759 3.989,2.664 3.264,2.239 4.983,5.313 5.03,9.303 0.026,2.24 0.134,4.478 0.151,6.717 0.058,7.678 0.099,15.357 0.133,23.035 0.081,18.397 0.153,36.793 0.229,55.189 0.052,12.318 0.134,24.635 0.152,36.953 0.049,35.197 0.061,70.393 0.111,105.59 0.018,11.998 0.127,23.997 0.151,35.995 0.01,4.987 0.512,9.897 1.924,14.692 1.045,3.55 2.572,6.883 4.552,10.014 3.187,5.038 7.489,8.689 13.153,10.666 0.753,0.263 1.637,0.353 2.237,0.813 1.505,1.154 3.202,1.112 4.954,1.316 6.492,0.756 11.743,-2.411 16.994,-5.331 5.035,-2.799 8.525,-7.165 10.892,-12.422 2.264,-5.029 3.342,-10.322 3.552,-15.806 0.067,-1.757 0.014,-3.519 0.014,-5.279 0,-106.232 -0.007,-212.464 0.004,-318.695 0.004,-41.437 0.028,-82.873 0.114,-124.309 0.008,-3.822 0.511,-7.645 0.823,-11.464 0.223,-2.739 1.662,-4.796 3.828,-6.369 1.422,-1.034 2.891,-2.006 4.361,-2.972 33.541,-22.061 67.086,-44.117 100.63,-66.174 0.401,-0.264 0.804,-0.525 1.197,-0.8 3.154,-2.203 6.271,-2.029 9.359,0.141 0.393,0.275 0.786,0.552 1.187,0.815 33.412,21.966 66.827,43.929 100.237,65.897 1.604,1.054 3.199,2.123 4.757,3.244 1.895,1.363 3.115,3.195 3.506,5.522 0.238,1.418 0.538,2.837 0.616,4.267 0.158,2.873 0.251,5.754 0.252,8.631 0.053,147.668 0.097,295.335 0.124,443.002 0.001,4.818 0.307,9.578 1.501,14.269 2.634,10.348 8.777,17.587 18.813,21.42 0.448,0.171 0.962,0.245 1.338,0.514 2.785,1.997 5.953,1.938 9.166,1.877 2.096,-0.04 4.147,0.029 5.886,-1.444 0.338,-0.287 0.893,-0.32 1.351,-0.463 6.976,-2.177 11.788,-6.862 15.168,-13.169 2.992,-5.583 4.662,-11.546 4.897,-17.885 0.107,-2.877 0.166,-5.757 0.182,-8.636 0.07,-12.318 0.135,-24.635 0.165,-36.953 0.087,-34.875 0.149,-69.75 0.232,-104.624 0.067,-27.997 0.143,-55.993 0.23,-83.99 0.031,-10.078 0.104,-20.156 0.158,-30.235 0.004,-0.64 0.028,-1.28 0.018,-1.92 -0.086,-5.237 2.039,-9.155 6.568,-11.957 10.337,-6.393 20.573,-12.951 30.86,-19.425 45.481,-28.626 90.966,-57.247 136.452,-85.865 1.353,-0.852 2.691,-1.745 4.119,-2.454 0.958,-0.476 2.061,-0.66 3.604,-1.127"
         style="fill:#ffffff;fill-opacity:1;fill-rule:nonzero;stroke:none"
         transform="matrix(0.35277776,0,0,-0.35277776,-803.46422,116.56936)"
         clip-path="url(#clipPath111)" />
      <path
         id="path112"
         d="m 0,0 c 2.135,-2.026 2.454,-4.139 3.064,-6.065 2.947,-9.291 5.812,-18.608 8.712,-27.914 5.706,-18.306 11.45,-36.6 17.106,-54.922 2.197,-7.118 6.128,-12.974 12.123,-17.388 1.798,-1.323 3.728,-2.484 5.677,-3.578 3.624,-2.035 7.309,-3.962 10.965,-5.94 1.124,-0.609 2.266,-1.192 3.348,-1.869 4.842,-3.025 6.82,-7.362 6.1,-13.043 -0.745,-5.881 -2.111,-11.628 -3.452,-17.386 -5.109,-21.941 -10.186,-43.889 -15.321,-65.823 -0.47,-2.01 -1.135,-3.998 -1.938,-5.899 -1.165,-2.762 -3.325,-4.121 -6.396,-4.169 -2.791,-0.045 -5.362,0.595 -7.877,1.746 -7.703,3.524 -15.424,7.011 -23.151,10.485 -3.352,1.506 -6.697,3.038 -10.114,4.386 -3.307,1.304 -5.427,0.746 -7.598,-2.051 -1.363,-1.756 -2.49,-3.719 -3.558,-5.679 -9.41,-17.268 -18.714,-34.595 -28.182,-51.831 -23.633,-43.022 -47.318,-86.015 -71.018,-129 -11.812,-21.422 -23.705,-42.8 -35.557,-64.2 -1.085,-1.958 -2.17,-3.917 -3.195,-5.906 -4.7,-9.121 -1.674,-18.041 4.215,-23.706 2.517,-2.421 5.369,-4.574 8.323,-6.447 33.628,-21.321 67.288,-42.592 100.98,-63.813 13.124,-8.266 26.27,-16.503 39.564,-24.493 6.214,-3.735 10.301,-8.822 12.784,-15.561 4.53,-12.297 9.317,-24.498 13.974,-36.747 6.475,-17.03 12.943,-34.062 19.373,-51.109 0.731,-1.937 1.321,-3.947 1.759,-5.97 0.621,-2.87 0.327,-5.74 -0.617,-8.514 -0.759,-2.234 -2.361,-3.495 -4.696,-3.293 -1.875,0.163 -3.825,0.576 -5.53,1.347 -3.49,1.579 -6.907,3.351 -10.233,5.256 -26.775,15.342 -53.526,30.727 -80.276,46.112 -51.838,29.814 -103.672,59.636 -155.506,89.457 -25.778,14.831 -51.554,29.666 -77.329,44.503 -1.801,1.037 -3.636,2.031 -5.352,3.196 -1.445,0.981 -2.907,2.032 -4.067,3.317 -2.629,2.912 -3.75,6.393 -2.453,10.207 0.97,2.854 2.144,5.696 3.644,8.304 5.977,10.396 12.103,20.707 18.201,31.033 36.021,60.996 72.055,121.983 108.073,182.98 41.466,70.221 82.92,140.45 124.379,210.675 12.682,21.481 25.362,42.963 38.049,64.44 C -2.119,-3.376 -1.18,-1.911 0,0"
         style="fill:#1f6692;fill-opacity:1;fill-rule:nonzero;stroke:none"
         transform="matrix(0.35277776,0,0,-0.35277776,-894.56,-68.747343)"
         clip-path="url(#clipPath113)" />
      <path
         id="path114"
         d="m 0,0 c 1.587,-1.171 2.248,-2.847 3.125,-4.327 10.51,-17.749 20.986,-35.518 31.474,-53.279 49.921,-84.54 99.846,-169.077 149.763,-253.618 35.447,-60.033 70.892,-120.067 106.299,-180.123 1.699,-2.881 3.19,-5.911 4.495,-8.991 1.364,-3.224 1.277,-6.555 -0.341,-9.743 -1.121,-2.209 -2.898,-3.82 -4.963,-5.094 -2.857,-1.763 -5.755,-3.461 -8.665,-5.136 -64.585,-37.152 -129.174,-74.298 -193.764,-111.442 -39.087,-22.478 -78.173,-44.957 -117.277,-67.404 -3.046,-1.749 -6.189,-3.344 -9.373,-4.825 -1.569,-0.73 -3.305,-1.266 -5.018,-1.481 -3.191,-0.403 -5.203,1.156 -5.822,4.333 -0.844,4.334 -0.468,8.573 1.123,12.726 2.916,7.611 5.726,15.263 8.63,22.879 8.198,21.503 16.42,42.997 24.634,64.495 0.399,1.045 0.818,2.083 1.208,3.132 2.085,5.618 5.763,9.836 10.899,12.936 7.256,4.378 14.388,8.96 21.608,13.398 39.782,24.45 79.373,49.204 118.533,74.641 3.471,2.255 6.907,4.697 9.888,7.546 5.179,4.949 7.416,11.202 5.904,18.328 -0.584,2.755 -1.901,5.425 -3.256,7.933 -4.937,9.145 -10.032,18.204 -15.065,27.297 -38.947,70.363 -78.056,140.635 -116.202,211.438 -1.895,3.519 -3.762,7.055 -5.746,10.525 -1.027,1.797 -2.126,3.599 -3.471,5.158 -1.817,2.108 -4.132,2.917 -6.889,1.674 -2.039,-0.919 -4.143,-1.694 -6.182,-2.612 -9.038,-4.065 -18.072,-8.138 -27.087,-12.254 -2.66,-1.214 -5.363,-1.959 -8.329,-1.869 -2.886,0.088 -4.964,1.421 -6.096,3.914 -0.982,2.164 -1.679,4.492 -2.222,6.814 -5.681,24.267 -11.301,48.549 -16.952,72.823 -0.91,3.907 -1.414,7.853 -1.589,11.862 -0.202,4.605 1.742,8.022 5.47,10.524 1.191,0.799 2.463,1.482 3.724,2.17 3.93,2.143 7.861,4.283 11.812,6.387 8.946,4.763 14.639,12.056 17.589,21.749 6.003,19.719 12.198,39.38 18.32,59.063 2.468,7.933 4.957,15.859 7.429,23.79 C -1.866,-3.008 -1.444,-1.311 0,0"
         style="fill:#1f6692;fill-opacity:1;fill-rule:nonzero;stroke:none"
         transform="matrix(0.35277776,0,0,-0.35277776,-473.62882,-68.664544)"
         clip-path="url(#clipPath115)" />
      <path
         id="path116"
         d="m 0,0 c -0.777,-2.895 -2.537,-4.116 -4.038,-5.513 -10.771,-10.026 -21.566,-20.027 -32.349,-30.041 -2.93,-2.721 -5.897,-5.406 -8.751,-8.205 -3.724,-3.651 -3.799,-4.895 -0.332,-8.833 11.206,-12.724 22.472,-25.396 33.711,-38.09 48.353,-54.612 96.707,-109.221 145.047,-163.844 3.295,-3.723 6.731,-7.259 10.771,-10.204 5.891,-4.295 12.101,-4.773 18.496,-1.513 2.825,1.44 5.562,3.208 7.99,5.243 8.826,7.396 17.562,14.903 26.212,22.504 3.478,3.056 6.623,6.488 9.961,9.708 8.056,7.772 15.974,15.698 24.238,23.243 23.746,21.681 48.133,42.633 72.723,63.349 1.59,1.34 3.095,2.793 4.765,4.022 3.475,2.557 6.342,2.236 9.329,-0.916 0.548,-0.578 1.022,-1.229 1.496,-1.872 13.621,-18.443 28.625,-35.665 45.319,-51.398 1.28,-1.206 2.53,-2.451 3.717,-3.747 0.97,-1.058 1.919,-2.158 2.717,-3.347 3.008,-4.484 3.651,-8.489 -1.452,-13.109 -18.26,-16.533 -36.441,-33.153 -54.662,-49.729 -16.447,-14.963 -32.914,-29.902 -49.358,-44.867 -34.426,-31.329 -68.853,-62.658 -103.253,-94.016 -5.327,-4.856 -11.301,-8.209 -18.505,-9.445 -6.113,-1.049 -11.475,0.364 -16.084,4.301 -2.784,2.378 -5.283,5.118 -7.726,7.86 -8.299,9.316 -16.516,18.705 -24.763,28.067 -82.048,93.142 -164.098,186.284 -246.145,279.427 -26.221,29.768 -52.443,59.534 -78.64,89.323 -2.956,3.362 -5.865,6.779 -8.572,10.341 -1.429,1.88 -2.534,4.059 -3.487,6.234 -0.769,1.755 0.092,3.038 1.948,3.656 1.716,0.57 3.429,0.561 5.203,0.244 11.008,-1.965 22.035,-3.827 33.035,-5.836 15.872,-2.898 31.723,-5.908 47.589,-8.836 5.49,-1.013 10.486,0.148 14.852,3.705 1.24,1.009 2.423,2.087 3.646,3.118 13.698,11.542 27.398,23.083 41.103,34.617 0.978,0.823 1.994,1.603 3.013,2.375 3.685,2.79 7.695,3.095 11.732,1.072 3.71,-1.859 7.313,-3.956 10.853,-6.127 C -49.161,30.967 -29.704,18.958 -10.235,6.969 -7.92,5.544 -5.566,4.179 -3.298,2.684 -2.13,1.913 -1.112,0.916 0,0"
         style="fill:#1f6692;fill-opacity:1;fill-rule:nonzero;stroke:none"
         transform="matrix(0.35277776,0,0,-0.35277776,-922.28013,174.35877)"
         clip-path="url(#clipPath117)" />
      <path
         id="path118"
         d="m 0,0 c -4.904,0.438 -9.911,1.525 -14.326,4.296 -2.826,1.773 -5.537,3.816 -8.007,6.06 -50.204,45.609 -100.367,91.263 -150.537,136.91 -18.221,16.578 -36.441,33.157 -54.66,49.738 -0.828,0.754 -1.666,1.5 -2.453,2.295 -3.217,3.247 -3.757,6.895 -1.563,10.899 1.634,2.983 4.034,5.346 6.424,7.713 5.113,5.066 10.277,10.083 15.298,15.239 10.844,11.136 20.532,23.253 29.937,35.605 0.967,1.27 1.87,2.619 3.004,3.726 2.554,2.495 5.218,2.707 8.243,0.816 0.675,-0.422 1.297,-0.937 1.905,-1.453 26.711,-22.67 53.394,-45.374 79.178,-69.102 7.999,-7.361 15.592,-15.163 23.407,-22.725 3.677,-3.559 7.338,-7.145 11.184,-10.515 7.22,-6.323 14.504,-12.578 21.9,-18.693 2.691,-2.225 5.632,-4.248 8.716,-5.877 6.538,-3.452 12.897,-2.895 18.889,1.588 3.607,2.699 6.798,5.806 9.776,9.174 23.419,26.484 46.86,52.95 70.295,79.42 35.737,40.363 71.477,80.725 107.209,121.093 1.271,1.436 2.577,2.859 3.679,4.421 1.18,1.673 1.062,3.267 -0.296,4.825 -1.258,1.443 -2.647,2.781 -4.051,4.087 -12.649,11.767 -25.317,23.514 -37.969,35.278 -1.286,1.197 -2.586,2.398 -3.721,3.732 -1.082,1.272 -0.921,2.772 0.329,3.83 0.97,0.821 2.054,1.52 3.14,2.189 21.917,13.506 43.835,27.01 65.772,40.484 2.587,1.588 5.281,3.001 7.929,4.487 5.048,2.835 9.722,2.335 14.184,-1.384 9.093,-7.578 18.295,-15.026 27.368,-22.627 5.395,-4.519 10.629,-9.229 15.942,-13.846 1.086,-0.944 2.188,-1.871 3.308,-2.774 4.382,-3.529 9.369,-4.689 14.863,-3.669 14.137,2.623 28.261,5.326 42.407,7.899 12.574,2.288 25.174,4.434 37.757,6.673 1.755,0.312 3.466,0.487 5.214,-0.04 2.414,-0.727 3.255,-2.075 2.191,-4.294 -1.029,-2.146 -2.259,-4.24 -3.691,-6.138 -2.213,-2.933 -4.611,-5.735 -7.04,-8.496 C 338.166,373.372 305.183,335.912 272.195,298.456 209.708,227.507 147.217,156.561 84.725,85.616 63.471,61.487 42.22,37.357 20.942,13.25 18.615,10.614 16.186,8.059 13.675,5.599 9.97,1.967 5.388,0.292 0,0"
         style="fill:#1f6692;fill-opacity:1;fill-rule:nonzero;stroke:none"
         transform="matrix(0.35277776,0,0,-0.35277776,-495.31407,319.37703)"
         clip-path="url(#clipPath119)" />
      <path
         id="path120"
         d="m 0,0 c -8.677,0.128 -16.854,2.125 -24.305,6.531 -13.074,7.732 -26.29,15.263 -39.012,23.546 -71.835,46.772 -143.549,93.731 -215.282,140.66 -9.634,6.303 -19.166,12.764 -28.691,19.231 -2.908,1.974 -5.615,4.24 -8.45,6.324 -3.086,2.268 -4.911,5.398 -6.315,8.863 -0.713,1.76 -0.705,3.473 0.263,5.062 0.908,1.489 1.904,2.961 3.076,4.245 1.613,1.768 3.395,3.389 5.162,5.01 13.205,12.109 26.416,24.211 39.649,36.289 1.53,1.397 3.099,2.802 4.835,3.915 3.685,2.365 7.599,3.031 11.888,1.457 3.345,-1.228 6.382,-2.927 9.3,-4.907 21.57,-14.639 43.077,-29.372 64.724,-43.896 34.13,-22.9 68.359,-45.654 102.535,-68.486 5.452,-3.643 10.843,-7.376 16.27,-11.057 8.486,-5.755 17.323,-10.882 26.684,-15.102 13.69,-6.171 28.027,-8.48 42.986,-7.799 13.689,0.624 26.387,4.532 38.505,10.686 6.854,3.48 13.428,7.425 19.815,11.699 28.312,18.945 56.682,37.803 84.946,56.819 33.04,22.229 65.993,44.589 98.982,66.895 3.054,2.064 6.209,3.883 9.706,5.164 4.1,1.501 7.888,0.926 11.482,-1.237 1.629,-0.98 3.114,-2.243 4.525,-3.531 13.825,-12.616 27.628,-25.255 41.412,-37.916 1.882,-1.728 3.707,-3.534 5.41,-5.437 2.608,-2.915 3.081,-6.1 1.239,-9.727 -1.486,-2.925 -3.338,-5.452 -5.993,-7.353 -7.15,-5.12 -14.164,-10.452 -21.513,-15.271 C 240.071,145.424 186.24,110.275 132.429,75.097 110.074,60.483 87.807,45.732 65.318,31.328 52.397,23.051 39.13,15.311 25.979,7.394 20.027,3.81 13.623,1.382 6.675,0.581 4.457,0.325 2.225,0.19 0,0"
         style="fill:#ffffff;fill-opacity:1;fill-rule:nonzero;stroke:none"
         transform="matrix(0.35277776,0,0,-0.35277776,-684.05009,351.0085)"
         clip-path="url(#clipPath121)" />
      <path
         id="path122"
         d="m 0,0 c 3.802,0.022 6.46,-1.518 8.076,-4.624 0.881,-1.691 1.533,-3.512 2.176,-5.315 15.904,-44.545 31.877,-89.067 47.653,-133.658 9.273,-26.21 18.233,-52.531 27.323,-78.806 0.574,-1.658 1.059,-3.348 1.582,-5.024 1.6,-5.131 0.107,-9.443 -3.622,-13.059 -3.558,-3.452 -7.128,-6.904 -10.861,-10.163 -16.392,-14.304 -32.843,-28.539 -49.278,-42.793 -0.845,-0.732 -1.703,-1.464 -2.626,-2.091 -5.307,-3.603 -11.311,-2.042 -14.075,3.692 -0.69,1.434 -1.175,2.97 -1.706,4.475 -16.271,46.111 -32.555,92.217 -48.795,138.338 -8.916,25.321 -17.757,50.669 -26.629,76.006 -0.211,0.603 -0.375,1.222 -0.581,1.827 -2.137,6.254 -0.695,11.664 3.983,16.206 2.638,2.561 5.381,5.021 8.172,7.415 16.754,14.373 33.534,28.715 50.31,43.063 1.093,0.935 2.213,1.84 3.343,2.73 C -3.847,-0.435 -1.883,0.108 0,0"
         style="fill:#1f6692;fill-opacity:1;fill-rule:nonzero;stroke:none"
         transform="matrix(0.35277776,0,0,-0.35277776,-847.21413,123.82132)"
         clip-path="url(#clipPath123)" />
      <path
         id="path124"
         d="m 0,0 c 1.824,0.129 3.623,-0.475 5.211,-1.65 1.284,-0.95 2.511,-1.98 3.725,-3.019 16.775,-14.348 33.552,-28.693 50.303,-43.068 2.669,-2.29 5.209,-4.731 7.824,-7.084 2.589,-2.33 4.112,-5.23 4.9,-8.605 0.411,-1.762 0.567,-3.455 0,-5.191 -0.594,-1.821 -1.112,-3.669 -1.746,-5.475 -21.439,-61.061 -42.884,-122.12 -64.338,-183.175 -3.655,-10.402 -7.35,-20.79 -11.053,-31.175 -0.534,-1.5 -1.062,-3.039 -1.863,-4.401 -2.662,-4.525 -7.87,-5.898 -12.472,-3.316 -1.242,0.697 -2.387,1.608 -3.469,2.545 -16.565,14.347 -33.133,28.692 -49.648,43.096 -3.615,3.153 -7.006,6.559 -10.54,9.805 -4.079,3.748 -5.156,8.327 -3.738,13.539 0.755,2.773 1.696,5.499 2.648,8.213 21.062,60.006 42.121,120.014 63.225,180.006 3.5,9.948 7.195,19.828 10.82,29.732 0.549,1.498 1.099,3.016 1.845,4.42 C -6.641,-1.559 -3.93,0.141 0,0"
         style="fill:#1f6692;fill-opacity:1;fill-rule:nonzero;stroke:none"
         transform="matrix(0.35277776,0,0,-0.35277776,-520.80932,123.82508)"
         clip-path="url(#clipPath125)" />
      <path
         id="path126"
         d="m 0,0 c 0,-15.993 0.012,-31.986 -0.012,-47.978 -0.004,-2.555 0.058,-5.142 -0.299,-7.659 -0.836,-5.889 -3.488,-10.925 -7.849,-15.002 -4.439,-4.151 -8.916,-8.259 -13.382,-12.381 -19.155,-17.679 -38.312,-35.356 -57.469,-53.033 -0.94,-0.868 -1.857,-1.765 -2.84,-2.58 -3.276,-2.714 -6.94,-3.093 -10.66,-1.103 -0.985,0.527 -1.918,1.151 -2.863,1.75 -22.951,14.556 -45.901,29.111 -68.843,43.68 -1.21,0.769 -2.442,1.555 -3.489,2.521 -3.479,3.211 -3.713,7.428 -0.591,11.088 1.135,1.33 2.501,2.47 3.81,3.641 24.434,21.859 48.888,43.696 73.311,65.567 23.827,21.338 47.615,42.719 71.446,64.053 2.856,2.557 5.779,5.058 8.848,7.349 1.494,1.116 3.326,1.931 5.13,2.441 2.181,0.617 3.901,-0.34 4.478,-2.511 0.608,-2.291 1.009,-4.702 1.044,-7.068 0.139,-9.433 0.108,-18.87 0.123,-28.306 C -0.094,16.313 -0.104,8.156 -0.104,0 Z"
         style="fill:#1f6692;fill-opacity:1;fill-rule:nonzero;stroke:none"
         transform="matrix(0.35277776,0,0,-0.35277776,-847.07232,81.848456)"
         clip-path="url(#clipPath127)" />
      <path
         id="path128"
         d="m 0,0 c 0,16.79 -0.007,33.579 0.011,50.368 0.002,1.757 0.063,3.524 0.27,5.265 0.13,1.086 0.493,2.171 0.917,3.187 0.623,1.497 1.898,2.25 3.463,1.982 1.384,-0.237 2.888,-0.579 4.016,-1.35 2.763,-1.887 5.468,-3.904 7.967,-6.125 9.803,-8.709 19.496,-17.54 29.267,-26.284 39.204,-35.082 78.424,-70.148 117.633,-105.224 1.429,-1.279 2.92,-2.513 4.188,-3.94 3.418,-3.846 3.027,-8.509 -0.924,-11.775 -0.981,-0.811 -2.082,-1.484 -3.16,-2.169 -23.075,-14.652 -46.154,-29.297 -69.234,-43.939 -0.809,-0.514 -1.613,-1.053 -2.474,-1.466 -3.62,-1.735 -7.102,-1.71 -10.257,1.046 -2.046,1.788 -4.04,3.637 -6.038,5.48 -21.979,20.273 -43.955,40.551 -65.932,60.827 -0.352,0.325 -0.701,0.654 -1.061,0.971 -5.992,5.282 -8.937,12.016 -9.063,19.904 -0.121,7.671 0.097,15.347 0.117,23.021 0.027,10.073 0.007,20.147 0.007,30.221 0.096,0 0.191,0 0.287,0"
         style="fill:#1f6692;fill-opacity:1;fill-rule:nonzero;stroke:none"
         transform="matrix(0.35277776,0,0,-0.35277776,-520.87864,81.269706)"
         clip-path="url(#clipPath129)" />
      <path
         id="path130"
         d="m 0,0 c -10.702,25.663 -21.281,51.026 -31.833,76.401 -0.161,0.387 0.021,0.916 0.04,1.316 0.207,0.155 0.325,0.27 0.465,0.342 0.135,0.068 0.305,0.153 0.437,0.125 C 23.982,66.59 78.854,54.989 133.721,43.371 c 0.604,-0.127 1.163,-0.462 1.675,-0.671 0.878,-1.585 0.128,-2.927 -0.273,-4.261 -2.577,-8.571 -5.182,-17.133 -7.783,-25.697 -2.601,-8.563 -5.207,-17.124 -7.811,-25.686 -0.14,-0.459 -0.264,-0.923 -0.422,-1.376 -0.872,-2.51 -1.236,-2.804 -3.801,-2.48 -6.977,0.884 -13.953,1.781 -20.918,2.755 C 82.042,-12.318 69.7,-10.567 57.365,-8.76 43.134,-6.674 28.91,-4.531 14.688,-2.381 9.954,-1.665 5.235,-0.852 0,0"
         style="fill:#ffffff;fill-opacity:1;fill-rule:nonzero;stroke:none"
         transform="matrix(0.35277776,0,0,-0.35277776,-754.75866,84.760456)"
         clip-path="url(#clipPath131)" />
      <path
         id="path132"
         d="m 0,0 c 0,-0.994 0.141,-1.507 -0.02,-1.895 -10.54,-25.384 -21.104,-50.758 -31.727,-76.279 -3.607,-0.67 -7.028,-1.412 -10.481,-1.931 -15.965,-2.395 -31.937,-4.748 -47.912,-7.076 -14.552,-2.121 -29.108,-4.208 -43.668,-6.271 -4.432,-0.628 -8.879,-1.155 -13.325,-1.676 -2.544,-0.297 -3.001,-0.011 -3.777,2.496 -2.364,7.634 -4.679,15.283 -7.006,22.929 -2.839,9.327 -5.68,18.653 -8.495,27.987 -0.546,1.812 -0.978,3.659 -1.405,5.274 1.267,1.523 2.735,1.655 4.123,1.949 33.616,7.115 67.234,14.22 100.849,21.338 20.169,4.271 40.333,8.564 60.501,12.839 0.61,0.129 1.239,0.17 2.343,0.316"
         style="fill:#ffffff;fill-opacity:1;fill-rule:nonzero;stroke:none"
         transform="matrix(0.35277776,0,0,-0.35277776,-602.09249,57.129968)"
         clip-path="url(#clipPath133)" />
    </g>
  </g>
</svg>
